<svg xmlns="http://www.w3.org/2000/svg" viewBox="0 0 96 104" width="96" height="104" shape-rendering="crispEdges">
  <g>
    <animateTransform attributeName="transform" type="translate" values="0,4;0,0;0,4" dur="3s" repeatCount="indefinite"/>
    <!-- #332219 -->
    <rect x="24" y="0" width="12" height="6" fill="#332219"/>
    <rect x="60" y="0" width="12" height="6" fill="#332219"/>
    <rect x="18" y="6" width="6" height="6" fill="#332219"/>
    <rect x="36" y="6" width="24" height="6" fill="#332219"/>
    <rect x="72" y="6" width="6" height="6" fill="#332219"/>
    <rect x="12" y="12" width="6" height="6" fill="#332219"/>
    <rect x="78" y="12" width="6" height="6" fill="#332219"/>
    <rect x="6" y="18" width="6" height="6" fill="#332219"/>
    <rect x="84" y="18" width="6" height="6" fill="#332219"/>
    <rect x="6" y="24" width="6" height="6" fill="#332219"/>
    <rect x="84" y="24" width="6" height="6" fill="#332219"/>
    <rect x="6" y="30" width="6" height="6" fill="#332219"/>
    <rect x="84" y="30" width="6" height="6" fill="#332219"/>
    <rect x="6" y="36" width="6" height="6" fill="#332219"/>
    <rect x="84" y="36" width="6" height="6" fill="#332219"/>
    <rect x="12" y="42" width="6" height="6" fill="#332219"/>
    <rect x="78" y="42" width="6" height="6" fill="#332219"/>
    <rect x="6" y="48" width="6" height="6" fill="#332219"/>
    <rect x="84" y="48" width="6" height="6" fill="#332219"/>
    <rect x="6" y="54" width="6" height="6" fill="#332219"/>
    <rect x="84" y="54" width="6" height="6" fill="#332219"/>
    <rect x="0" y="60" width="6" height="6" fill="#332219"/>
    <rect x="90" y="60" width="6" height="6" fill="#332219"/>
    <rect x="0" y="66" width="6" height="6" fill="#332219"/>
    <rect x="90" y="66" width="6" height="6" fill="#332219"/>
    <rect x="0" y="72" width="6" height="6" fill="#332219"/>
    <rect x="90" y="72" width="6" height="6" fill="#332219"/>
    <rect x="6" y="78" width="12" height="6" fill="#332219"/>
    <rect x="78" y="78" width="12" height="6" fill="#332219"/>
    <rect x="18" y="84" width="60" height="6" fill="#332219"/>
    <!-- #7a5240 -->
    <rect x="24" y="6" width="12" height="6" fill="#7a5240"/>
    <rect x="60" y="6" width="12" height="6" fill="#7a5240"/>
    <rect x="18" y="12" width="6" height="6" fill="#7a5240"/>
    <rect x="42" y="12" width="12" height="6" fill="#7a5240"/>
    <rect x="72" y="12" width="6" height="6" fill="#7a5240"/>
    <rect x="12" y="18" width="6" height="6" fill="#7a5240"/>
    <rect x="78" y="18" width="6" height="6" fill="#7a5240"/>
    <rect x="12" y="24" width="6" height="6" fill="#7a5240"/>
    <rect x="78" y="24" width="6" height="6" fill="#7a5240"/>
    <rect x="12" y="30" width="6" height="6" fill="#7a5240"/>
    <rect x="78" y="30" width="6" height="6" fill="#7a5240"/>
    <rect x="12" y="36" width="6" height="6" fill="#7a5240"/>
    <rect x="78" y="36" width="6" height="6" fill="#7a5240"/>
    <rect x="18" y="42" width="6" height="6" fill="#7a5240"/>
    <rect x="72" y="42" width="6" height="6" fill="#7a5240"/>
    <rect x="12" y="48" width="18" height="6" fill="#7a5240"/>
    <rect x="66" y="48" width="18" height="6" fill="#7a5240"/>
    <rect x="12" y="54" width="12" height="6" fill="#7a5240"/>
    <rect x="72" y="54" width="12" height="6" fill="#7a5240"/>
    <rect x="6" y="60" width="18" height="6" fill="#7a5240"/>
    <rect x="72" y="60" width="18" height="6" fill="#7a5240"/>
    <rect x="6" y="66" width="18" height="6" fill="#7a5240"/>
    <rect x="72" y="66" width="18" height="6" fill="#7a5240"/>
    <rect x="6" y="72" width="18" height="6" fill="#7a5240"/>
    <rect x="72" y="72" width="18" height="6" fill="#7a5240"/>
    <rect x="18" y="78" width="12" height="6" fill="#7a5240"/>
    <rect x="66" y="78" width="12" height="6" fill="#7a5240"/>
    <!-- #b59785 -->
    <rect x="24" y="12" width="18" height="6" fill="#b59785"/>
    <rect x="54" y="12" width="18" height="6" fill="#b59785"/>
    <rect x="18" y="18" width="6" height="6" fill="#b59785"/>
    <rect x="42" y="18" width="12" height="6" fill="#b59785"/>
    <rect x="72" y="18" width="6" height="6" fill="#b59785"/>
    <rect x="18" y="24" width="6" height="6" fill="#b59785"/>
    <rect x="42" y="24" width="12" height="6" fill="#b59785"/>
    <rect x="72" y="24" width="6" height="6" fill="#b59785"/>
    <rect x="18" y="30" width="6" height="6" fill="#b59785"/>
    <rect x="42" y="30" width="12" height="6" fill="#b59785"/>
    <rect x="72" y="30" width="6" height="6" fill="#b59785"/>
    <rect x="18" y="36" width="24" height="6" fill="#b59785"/>
    <rect x="54" y="36" width="24" height="6" fill="#b59785"/>
    <rect x="24" y="42" width="18" height="6" fill="#b59785"/>
    <rect x="54" y="42" width="18" height="6" fill="#b59785"/>
    <!-- #e8d4c8 -->
    <rect x="30" y="48" width="36" height="6" fill="#e8d4c8"/>
    <rect x="24" y="54" width="6" height="6" fill="#e8d4c8"/>
    <rect x="36" y="54" width="24" height="6" fill="#e8d4c8"/>
    <rect x="66" y="54" width="6" height="6" fill="#e8d4c8"/>
    <rect x="24" y="60" width="12" height="6" fill="#e8d4c8"/>
    <rect x="42" y="60" width="12" height="6" fill="#e8d4c8"/>
    <rect x="60" y="60" width="12" height="6" fill="#e8d4c8"/>
    <rect x="24" y="66" width="6" height="6" fill="#e8d4c8"/>
    <rect x="36" y="66" width="24" height="6" fill="#e8d4c8"/>
    <rect x="66" y="66" width="6" height="6" fill="#e8d4c8"/>
    <rect x="24" y="72" width="12" height="6" fill="#e8d4c8"/>
    <rect x="42" y="72" width="12" height="6" fill="#e8d4c8"/>
    <rect x="60" y="72" width="12" height="6" fill="#e8d4c8"/>
    <rect x="30" y="78" width="36" height="6" fill="#e8d4c8"/>
    <!-- #ffffff -->
    <rect x="24" y="18" width="18" height="6" fill="#ffffff"/>
    <rect x="54" y="18" width="18" height="6" fill="#ffffff"/>
    <rect x="24" y="24" width="12" height="6" fill="#ffffff"/>
    <rect x="60" y="24" width="12" height="6" fill="#ffffff"/>
    <rect x="24" y="30" width="6" height="6" fill="#ffffff"/>
    <rect x="66" y="30" width="6" height="6" fill="#ffffff"/>
    <!-- #1a1a1a -->
    <rect x="36" y="24" width="6" height="6" fill="#1a1a1a"/>
    <rect x="54" y="24" width="6" height="6" fill="#1a1a1a"/>
    <rect x="30" y="30" width="12" height="6" fill="#1a1a1a"/>
    <rect x="54" y="30" width="12" height="6" fill="#1a1a1a"/>
    <!-- #f5a623 -->
    <rect x="42" y="36" width="12" height="6" fill="#f5a623"/>
    <rect x="42" y="42" width="12" height="6" fill="#f5a623"/>
    <rect x="24" y="90" width="18" height="6" fill="#f5a623"/>
    <rect x="54" y="90" width="18" height="6" fill="#f5a623"/>
    <!-- #c9b2a5 -->
    <rect x="30" y="54" width="6" height="6" fill="#c9b2a5"/>
    <rect x="60" y="54" width="6" height="6" fill="#c9b2a5"/>
    <rect x="36" y="60" width="6" height="6" fill="#c9b2a5"/>
    <rect x="54" y="60" width="6" height="6" fill="#c9b2a5"/>
    <rect x="30" y="66" width="6" height="6" fill="#c9b2a5"/>
    <rect x="60" y="66" width="6" height="6" fill="#c9b2a5"/>
    <rect x="36" y="72" width="6" height="6" fill="#c9b2a5"/>
    <rect x="54" y="72" width="6" height="6" fill="#c9b2a5"/>
  </g>
</svg>
