<svg xmlns="http://www.w3.org/2000/svg" viewBox="0 0 96 98" width="96" height="98" shape-rendering="crispEdges">
  <g>
    <animateTransform attributeName="transform" type="translate" values="0,4;0,0;0,4" dur="3s" repeatCount="indefinite"/>
    <rect x="36" y="0" width="6" height="6" fill="#ffffff"/>
    <rect x="42" y="0" width="6" height="6" fill="#ffffff"/>
    <rect x="60" y="0" width="6" height="6" fill="#ffffff"/>
    <rect x="66" y="0" width="6" height="6" fill="#ffffff"/>
    <rect x="24" y="6" width="6" height="6" fill="#ffffff"/>
    <rect x="30" y="6" width="6" height="6" fill="#2e1065"/>
    <rect x="36" y="6" width="6" height="6" fill="#ffffff"/>
    <rect x="54" y="6" width="6" height="6" fill="#ffffff"/>
    <rect x="60" y="6" width="6" height="6" fill="#2e1065"/>
    <rect x="66" y="6" width="6" height="6" fill="#ffffff"/>
    <rect x="18" y="12" width="6" height="6" fill="#ffffff"/>
    <rect x="24" y="12" width="6" height="6" fill="#2e1065"/>
    <rect x="30" y="12" width="6" height="6" fill="#2e1065"/>
    <rect x="36" y="12" width="6" height="6" fill="#2e1065"/>
    <rect x="42" y="12" width="6" height="6" fill="#2e1065"/>
    <rect x="48" y="12" width="6" height="6" fill="#2e1065"/>
    <rect x="54" y="12" width="6" height="6" fill="#2e1065"/>
    <rect x="60" y="12" width="6" height="6" fill="#2e1065"/>
    <rect x="66" y="12" width="6" height="6" fill="#2e1065"/>
    <rect x="72" y="12" width="6" height="6" fill="#ffffff"/>
    <rect x="12" y="18" width="6" height="6" fill="#ffffff"/>
    <rect x="18" y="18" width="6" height="6" fill="#2e1065"/>
    <rect x="24" y="18" width="6" height="6" fill="#2e1065"/>
    <rect x="30" y="18" width="6" height="6" fill="#2e1065"/>
    <rect x="36" y="18" width="6" height="6" fill="#2e1065"/>
    <rect x="42" y="18" width="6" height="6" fill="#2e1065"/>
    <rect x="48" y="18" width="6" height="6" fill="#2e1065"/>
    <rect x="54" y="18" width="6" height="6" fill="#2e1065"/>
    <rect x="60" y="18" width="6" height="6" fill="#2e1065"/>
    <rect x="66" y="18" width="6" height="6" fill="#2e1065"/>
    <rect x="72" y="18" width="6" height="6" fill="#2e1065"/>
    <rect x="78" y="18" width="6" height="6" fill="#ffffff"/>
    <rect x="12" y="24" width="6" height="6" fill="#ffffff"/>
    <rect x="18" y="24" width="6" height="6" fill="#2e1065"/>
    <rect x="24" y="24" width="6" height="6" fill="#2e1065"/>
    <rect x="30" y="24" width="6" height="6" fill="#0f0a1e"/>
    <rect x="36" y="24" width="6" height="6" fill="#0f0a1e"/>
    <rect x="42" y="24" width="6" height="6" fill="#2e1065"/>
    <rect x="48" y="24" width="6" height="6" fill="#2e1065"/>
    <rect x="54" y="24" width="6" height="6" fill="#0f0a1e"/>
    <rect x="60" y="24" width="6" height="6" fill="#0f0a1e"/>
    <rect x="66" y="24" width="6" height="6" fill="#2e1065"/>
    <rect x="72" y="24" width="6" height="6" fill="#2e1065"/>
    <rect x="78" y="24" width="6" height="6" fill="#ffffff"/>
    <rect x="12" y="30" width="6" height="6" fill="#ffffff"/>
    <rect x="18" y="30" width="6" height="6" fill="#2e1065"/>
    <rect x="24" y="30" width="6" height="6" fill="#2e1065"/>
    <rect x="30" y="30" width="6" height="6" fill="#0f0a1e"/>
    <rect x="36" y="30" width="6" height="6" fill="#0f0a1e"/>
    <rect x="42" y="30" width="6" height="6" fill="#2e1065"/>
    <rect x="48" y="30" width="6" height="6" fill="#2e1065"/>
    <rect x="54" y="30" width="6" height="6" fill="#0f0a1e"/>
    <rect x="60" y="30" width="6" height="6" fill="#0f0a1e"/>
    <rect x="66" y="30" width="6" height="6" fill="#2e1065"/>
    <rect x="72" y="30" width="6" height="6" fill="#2e1065"/>
    <rect x="78" y="30" width="6" height="6" fill="#ffffff"/>
    <rect x="12" y="36" width="6" height="6" fill="#ffffff"/>
    <rect x="18" y="36" width="6" height="6" fill="#2e1065"/>
    <rect x="24" y="36" width="6" height="6" fill="#2e1065"/>
    <rect x="30" y="36" width="6" height="6" fill="#2e1065"/>
    <rect x="36" y="36" width="6" height="6" fill="#2e1065"/>
    <rect x="42" y="36" width="6" height="6" fill="#2e1065"/>
    <rect x="48" y="36" width="6" height="6" fill="#2e1065"/>
    <rect x="54" y="36" width="6" height="6" fill="#2e1065"/>
    <rect x="60" y="36" width="6" height="6" fill="#2e1065"/>
    <rect x="66" y="36" width="6" height="6" fill="#2e1065"/>
    <rect x="72" y="36" width="6" height="6" fill="#2e1065"/>
    <rect x="78" y="36" width="6" height="6" fill="#ffffff"/>
    <rect x="12" y="42" width="6" height="6" fill="#ffffff"/>
    <rect x="18" y="42" width="6" height="6" fill="#2e1065"/>
    <rect x="24" y="42" width="6" height="6" fill="#2e1065"/>
    <rect x="30" y="42" width="6" height="6" fill="#2e1065"/>
    <rect x="36" y="42" width="6" height="6" fill="#2e1065"/>
    <rect x="42" y="42" width="6" height="6" fill="#ea580c"/>
    <rect x="48" y="42" width="6" height="6" fill="#ea580c"/>
    <rect x="54" y="42" width="6" height="6" fill="#2e1065"/>
    <rect x="60" y="42" width="6" height="6" fill="#2e1065"/>
    <rect x="66" y="42" width="6" height="6" fill="#2e1065"/>
    <rect x="72" y="42" width="6" height="6" fill="#2e1065"/>
    <rect x="78" y="42" width="6" height="6" fill="#ffffff"/>
    <rect x="12" y="48" width="6" height="6" fill="#ffffff"/>
    <rect x="18" y="48" width="6" height="6" fill="#2e1065"/>
    <rect x="24" y="48" width="6" height="6" fill="#2e1065"/>
    <rect x="30" y="48" width="6" height="6" fill="#2e1065"/>
    <rect x="36" y="48" width="6" height="6" fill="#2e1065"/>
    <rect x="42" y="48" width="6" height="6" fill="#2e1065"/>
    <rect x="48" y="48" width="6" height="6" fill="#2e1065"/>
    <rect x="54" y="48" width="6" height="6" fill="#2e1065"/>
    <rect x="60" y="48" width="6" height="6" fill="#2e1065"/>
    <rect x="66" y="48" width="6" height="6" fill="#2e1065"/>
    <rect x="72" y="48" width="6" height="6" fill="#2e1065"/>
    <rect x="78" y="48" width="6" height="6" fill="#ffffff"/>
    <rect x="12" y="54" width="6" height="6" fill="#ffffff"/>
    <rect x="18" y="54" width="6" height="6" fill="#2e1065"/>
    <rect x="24" y="54" width="6" height="6" fill="#2e1065"/>
    <rect x="30" y="54" width="6" height="6" fill="#4c1d95"/>
    <rect x="36" y="54" width="6" height="6" fill="#4c1d95"/>
    <rect x="42" y="54" width="6" height="6" fill="#4c1d95"/>
    <rect x="48" y="54" width="6" height="6" fill="#4c1d95"/>
    <rect x="54" y="54" width="6" height="6" fill="#4c1d95"/>
    <rect x="60" y="54" width="6" height="6" fill="#4c1d95"/>
    <rect x="66" y="54" width="6" height="6" fill="#2e1065"/>
    <rect x="72" y="54" width="6" height="6" fill="#2e1065"/>
    <rect x="78" y="54" width="6" height="6" fill="#ffffff"/>
    <rect x="12" y="60" width="6" height="6" fill="#ffffff"/>
    <rect x="18" y="60" width="6" height="6" fill="#2e1065"/>
    <rect x="24" y="60" width="6" height="6" fill="#2e1065"/>
    <rect x="30" y="60" width="6" height="6" fill="#4c1d95"/>
    <rect x="36" y="60" width="6" height="6" fill="#4c1d95"/>
    <rect x="42" y="60" width="6" height="6" fill="#4c1d95"/>
    <rect x="48" y="60" width="6" height="6" fill="#4c1d95"/>
    <rect x="54" y="60" width="6" height="6" fill="#4c1d95"/>
    <rect x="60" y="60" width="6" height="6" fill="#4c1d95"/>
    <rect x="66" y="60" width="6" height="6" fill="#2e1065"/>
    <rect x="72" y="60" width="6" height="6" fill="#2e1065"/>
    <rect x="78" y="60" width="6" height="6" fill="#ffffff"/>
    <rect x="18" y="66" width="6" height="6" fill="#ffffff"/>
    <rect x="24" y="66" width="6" height="6" fill="#2e1065"/>
    <rect x="30" y="66" width="6" height="6" fill="#2e1065"/>
    <rect x="36" y="66" width="6" height="6" fill="#2e1065"/>
    <rect x="42" y="66" width="6" height="6" fill="#2e1065"/>
    <rect x="48" y="66" width="6" height="6" fill="#2e1065"/>
    <rect x="54" y="66" width="6" height="6" fill="#2e1065"/>
    <rect x="60" y="66" width="6" height="6" fill="#2e1065"/>
    <rect x="66" y="66" width="6" height="6" fill="#2e1065"/>
    <rect x="72" y="66" width="6" height="6" fill="#ffffff"/>
    <rect x="18" y="72" width="6" height="6" fill="#ffffff"/>
    <rect x="24" y="72" width="6" height="6" fill="#ffffff"/>
    <rect x="30" y="72" width="6" height="6" fill="#ffffff"/>
    <rect x="36" y="72" width="6" height="6" fill="#ffffff"/>
    <rect x="42" y="72" width="6" height="6" fill="#ffffff"/>
    <rect x="48" y="72" width="6" height="6" fill="#ffffff"/>
    <rect x="54" y="72" width="6" height="6" fill="#ffffff"/>
    <rect x="60" y="72" width="6" height="6" fill="#ffffff"/>
    <rect x="66" y="72" width="6" height="6" fill="#ffffff"/>
    <rect x="72" y="72" width="6" height="6" fill="#ffffff"/>
    <rect x="30" y="78" width="6" height="6" fill="#ffffff"/>
    <rect x="36" y="78" width="6" height="6" fill="#ffffff"/>
    <rect x="54" y="78" width="6" height="6" fill="#ffffff"/>
    <rect x="60" y="78" width="6" height="6" fill="#ffffff"/>
    <rect x="30" y="84" width="6" height="6" fill="#ffffff"/>
    <rect x="36" y="84" width="6" height="6" fill="#ffffff"/>
    <rect x="54" y="84" width="6" height="6" fill="#ffffff"/>
    <rect x="60" y="84" width="6" height="6" fill="#ffffff"/>
  </g>
</svg>